<svg xmlns="http://www.w3.org/2000/svg" xmlns:xlink="http://www.w3.org/1999/xlink" width="63" zoomAndPan="magnify" viewBox="0 0 47.25 108" height="144" preserveAspectRatio="xMidYMid meet" version="1.0"><defs><clipPath id="3bbf7ee845"><path d="M 1.621094 33.234375 L 23 33.234375 L 23 77.53125 L 1.621094 77.53125 Z M 1.621094 33.234375 " clip-rule="nonzero"/></clipPath><clipPath id="dfa403767f"><path d="M 25 33.234375 L 45.179688 33.234375 L 45.179688 77.53125 L 25 77.53125 Z M 25 33.234375 " clip-rule="nonzero"/></clipPath></defs><g clip-path="url(#3bbf7ee845)"><path fill="#ff8f96" d="M 1.625 55.378906 C 1.625 65.261719 8.105469 73.636719 17.0625 76.511719 C 18.75 77.054688 20.523438 77.402344 22.359375 77.527344 L 22.359375 71.972656 C 20.488281 71.800781 18.703125 71.324219 17.0625 70.589844 C 12.011719 68.328125 8.289062 63.644531 7.390625 58.019531 L 19.183594 58.019531 L 19.183594 52.742188 L 7.390625 52.742188 C 8.289062 47.117188 12.011719 42.433594 17.0625 40.171875 C 18.703125 39.4375 20.488281 38.957031 22.359375 38.789062 L 22.359375 33.230469 C 20.523438 33.359375 18.75 33.703125 17.0625 34.246094 C 8.105469 37.125 1.625 45.496094 1.625 55.378906 Z M 1.625 55.378906 " fill-opacity="1" fill-rule="nonzero"/></g><g clip-path="url(#dfa403767f)"><path fill="#ff8f96" d="M 31.035156 70.453125 L 31.035156 62.84375 L 40.507812 53.40625 L 45.171875 48.757812 C 44.605469 46.941406 43.808594 45.222656 42.816406 43.640625 C 40.109375 39.324219 35.957031 36 31.035156 34.34375 C 29.351562 33.777344 27.574219 33.402344 25.738281 33.253906 L 25.738281 48.363281 L 31.035156 48.363281 L 31.035156 40.304688 C 34.34375 41.863281 37.058594 44.472656 38.742188 47.699219 L 25.738281 60.65625 L 25.738281 77.507812 C 27.574219 77.355469 29.351562 76.984375 31.035156 76.417969 C 37.210938 74.339844 42.171875 69.636719 44.585938 63.644531 L 39.449219 61.523438 C 37.882812 65.457031 34.855469 68.65625 31.035156 70.453125 Z M 31.035156 70.453125 " fill-opacity="1" fill-rule="nonzero"/></g></svg>